HIERARCHY
ROOT Hips
{
	OFFSET 0.000000 0.000000 0.000000
	CHANNELS 6 Xposition Yposition Zposition Xrotation Yrotation Zrotation
	JOINT LeftUpLeg_virtual
	{
		OFFSET 0.000000 0.000000 0.000000
		CHANNELS 3 Xrotation Yrotation Zrotation
		JOINT LeftUpLeg
		{
			OFFSET 15.427100 -6.655098 0.678600
			CHANNELS 3 Xrotation Yrotation Zrotation
			JOINT LeftLeg
			{
				OFFSET 4.081073 -39.591068 13.024000
				CHANNELS 3 Xrotation Yrotation Zrotation
				JOINT LeftFoot
				{
					OFFSET -4.081074 -37.707932 -15.979700
					CHANNELS 3 Xrotation Yrotation Zrotation
					JOINT LeftToeBase
					{
						OFFSET 5.346399 -15.068900 20.645000
						CHANNELS 3 Xrotation Yrotation Zrotation
						JOINT LeftToe_End
						{
							OFFSET 2.754700 0.931300 11.300900
							CHANNELS 3 Xrotation Yrotation Zrotation
							End Site
							{
								OFFSET 0 0 0
							}
						}
					}
				}
			}
		}
	}
	JOINT RightUpLeg_virtual
	{
		OFFSET 0.000000 0.000000 0.000000
		CHANNELS 3 Xrotation Yrotation Zrotation
		JOINT RightUpLeg
		{
			OFFSET -15.569500 -6.655098 0.678600
			CHANNELS 3 Xrotation Yrotation Zrotation
			JOINT RightLeg
			{
				OFFSET -4.081825 -39.591045 13.023800
				CHANNELS 3 Xrotation Yrotation Zrotation
				JOINT RightFoot
				{
					OFFSET 4.081824 -37.707954 -15.979600
					CHANNELS 3 Xrotation Yrotation Zrotation
					JOINT RightToeBase
					{
						OFFSET -5.346400 -15.068900 20.645000
						CHANNELS 3 Xrotation Yrotation Zrotation
						JOINT RightToe_End
						{
							OFFSET -2.754700 0.931300 11.300900
							CHANNELS 3 Xrotation Yrotation Zrotation
							End Site
							{
								OFFSET 0 0 0
							}
						}
					}
				}
			}
		}
	}
	JOINT Spine_virtual
	{
		OFFSET 0.000000 0.000000 0.000000
		CHANNELS 3 Xrotation Yrotation Zrotation
		JOINT Spine
		{
			OFFSET -0.279200 12.230698 -2.892100
			CHANNELS 3 Xrotation Yrotation Zrotation
			JOINT Spine1
			{
				OFFSET -0.232667 10.192268 -1.242267
				CHANNELS 3 Xrotation Yrotation Zrotation
				JOINT Spine1_split
				{
					OFFSET -0.232667 10.192268 -1.242267
					CHANNELS 3 Xrotation Yrotation Zrotation
					JOINT Spine2
					{
						OFFSET -0.232667 10.192268 -1.242267
						CHANNELS 3 Xrotation Yrotation Zrotation
						JOINT Neck_virtual
						{
							OFFSET 0.000000 0.000000 0.000000
							CHANNELS 3 Xrotation Yrotation Zrotation
							JOINT Neck
							{
								OFFSET -0.418800 17.814194 8.416900
								CHANNELS 3 Xrotation Yrotation Zrotation
								JOINT Head
								{
									OFFSET 0.000000 7.031097 3.806800
									CHANNELS 3 Xrotation Yrotation Zrotation
									JOINT HeadTop_End
									{
										OFFSET 0.000000 24.646606 12.978600
										CHANNELS 3 Xrotation Yrotation Zrotation
										End Site
										{
											OFFSET 0 0 0
										}
									}
								}
							}
						}
						JOINT LeftShoulder_virtual
						{
							OFFSET 0.000000 0.000000 0.000000
							CHANNELS 3 Xrotation Yrotation Zrotation
							JOINT LeftShoulder
							{
								OFFSET 8.476499 7.247704 -3.868750
								CHANNELS 3 Xrotation Yrotation Zrotation
								JOINT LeftShoulder_split
								{
									OFFSET 8.476499 7.247704 -3.868750
									CHANNELS 3 Xrotation Yrotation Zrotation
									JOINT LeftArm
									{
										OFFSET 9.308998 -2.777710 0.208600
										CHANNELS 3 Xrotation Yrotation Zrotation
										JOINT LeftForeArm
										{
											OFFSET 29.972298 0.000000 0.000000
											CHANNELS 3 Xrotation Yrotation Zrotation
											JOINT LeftHand
											{
												OFFSET 26.026505 0.000000 0.000000
												CHANNELS 3 Xrotation Yrotation Zrotation
												End Site
												{
													OFFSET 0 0 0
												}
											}
										}
									}
								}
							}
						}
						JOINT RightShoulder_virtual
						{
							OFFSET 0.000000 0.000000 0.000000
							CHANNELS 3 Xrotation Yrotation Zrotation
							JOINT RightShoulder
							{
								OFFSET -7.570500 7.247704 -3.868750
								CHANNELS 3 Xrotation Yrotation Zrotation
								JOINT RightShoulder_split
								{
									OFFSET -7.570500 7.247704 -3.868750
									CHANNELS 3 Xrotation Yrotation Zrotation
									JOINT RightArm
									{
										OFFSET -9.308998 -2.777710 0.208500
										CHANNELS 3 Xrotation Yrotation Zrotation
										JOINT RightForeArm
										{
											OFFSET -29.972300 0.000000 0.000000
											CHANNELS 3 Xrotation Yrotation Zrotation
											JOINT RightHand
											{
												OFFSET -26.026505 0.000000 0.000000
												CHANNELS 3 Xrotation Yrotation Zrotation
												End Site
												{
													OFFSET 0 0 0
												}
											}
										}
									}
								}
							}
						}
					}
				}
			}
		}
	}
}
MOTION
Frames: 10
Frame Time: 0.03333333
-0.003860 74.367691 -0.357197 0.000000 0.000000 0.000000 11.754893 -49.677670 11.771174 -67.586505 25.164358 42.947232 43.279610 -19.356790 3.336703 8.271958 0.637551 -12.352745 -0.971543 -6.109419 0.595351 0.000000 0.000000 0.000000 11.754893 -49.677670 11.771174 -29.726780 0.631853 -30.302988 49.962912 5.852525 -4.864580 -26.770440 -5.250206 27.155294 0.528343 2.970041 1.471352 0.000000 0.000000 0.000000 11.754893 -49.677670 11.771174 10.996844 2.942072 -2.515426 6.100708 5.566532 -4.284678 0.000000 0.000000 0.000000 0.000000 0.000000 0.000000 -5.786931 6.328154 -3.046183 2.318914 9.363310 -0.265299 -4.146750 23.161907 -3.523335 0.000000 0.000000 0.000000 -5.786931 6.328154 -3.046183 -1.875339 -16.181746 -2.870468 0.000000 0.000000 0.000000 -10.644668 2.164765 -45.510643 -22.862381 -25.786257 -15.871674 0.000000 0.000000 0.000000 -5.786931 6.328154 -3.046183 -5.074767 24.344970 1.482928 0.000000 0.000000 0.000000 6.642455 -34.735016 57.610419 -21.032043 44.833871 19.961733 0.000000 0.000000 0.000000 
-0.042670 74.558693 -0.588188 0.000000 0.000000 0.000000 11.415254 -50.311440 11.421577 -67.061256 25.229600 43.483313 42.792307 -19.279922 3.273765 8.398779 0.689440 -12.664262 -0.851736 -5.970501 0.552162 0.000000 0.000000 0.000000 11.415254 -50.311440 11.421577 -29.932515 0.504859 -29.865484 49.856437 6.073642 -4.890219 -26.477047 -4.761510 26.750895 0.528320 2.970091 1.471361 0.000000 0.000000 0.000000 11.415254 -50.311440 11.421577 10.953013 2.914908 -2.553393 5.754461 5.620918 -4.465459 0.000000 0.000000 0.000000 0.000000 0.000000 0.000000 -6.114665 6.395255 -3.246988 2.473461 9.737930 -0.469675 -4.007681 23.494370 -3.699871 0.000000 0.000000 0.000000 -6.114665 6.395255 -3.246988 -1.856193 -16.125015 -2.793419 0.000000 0.000000 0.000000 -9.304245 3.610385 -44.990599 -23.777480 -29.920716 -18.575213 0.000000 0.000000 0.000000 -6.114665 6.395255 -3.246988 -5.081653 24.149918 1.470715 0.000000 0.000000 0.000000 7.290154 -35.178920 57.904479 -21.255098 45.591178 20.253113 0.000000 0.000000 0.000000 
-0.103414 74.759018 -0.802029 0.000000 0.000000 0.000000 11.212750 -50.967660 11.247069 -66.477862 25.345504 43.902137 42.286767 -19.143306 3.287724 8.472010 0.800534 -13.079118 -0.734911 -5.851585 0.510279 0.000000 0.000000 0.000000 11.212750 -50.967660 11.247069 -30.210528 0.447503 -29.478704 49.749226 6.297158 -4.912123 -26.184550 -4.277981 26.354293 0.528362 2.970060 1.471328 0.000000 0.000000 0.000000 11.212750 -50.967660 11.247069 10.923820 2.860752 -2.580993 5.549804 5.637697 -4.562778 0.000000 0.000000 0.000000 0.000000 0.000000 0.000000 -6.308807 6.419471 -3.362157 2.157814 10.267388 -0.535474 -3.095864 23.970151 -4.101395 0.000000 0.000000 0.000000 -6.308807 6.419471 -3.362157 -1.847869 -16.070629 -2.774186 0.000000 0.000000 0.000000 -8.282001 4.767150 -44.394222 -24.638258 -33.133804 -20.826568 0.000000 0.000000 0.000000 -6.308807 6.419471 -3.362157 -4.969658 24.003417 1.112967 0.000000 0.000000 0.000000 9.818350 -37.442404 58.296327 -23.000358 49.695934 22.598036 0.000000 0.000000 0.000000 
-0.185924 74.961060 -0.996456 0.000000 0.000000 0.000000 11.241979 -51.671539 11.319043 -65.962128 25.550100 44.354897 41.744088 -18.998204 3.251098 8.518611 0.935156 -13.501133 -0.650026 -5.752872 0.488776 0.000000 0.000000 0.000000 11.241979 -51.671539 11.319043 -30.634061 0.486385 -29.121382 49.653177 6.528702 -4.934506 -25.884351 -3.793699 25.965289 0.528329 2.970026 1.471326 0.000000 0.000000 0.000000 11.241979 -51.671539 11.319043 10.899526 2.788629 -2.617222 5.370466 5.615236 -4.602949 0.000000 0.000000 0.000000 0.000000 0.000000 0.000000 -6.485341 6.402651 -3.425194 1.587712 10.749032 -0.621677 -2.442081 24.425679 -4.382238 0.000000 0.000000 0.000000 -6.485341 6.402651 -3.425194 -1.832330 -15.909964 -2.693249 0.000000 0.000000 0.000000 -7.601339 5.440232 -43.854558 -25.343796 -35.396397 -22.608158 0.000000 0.000000 0.000000 -6.485341 6.402651 -3.425194 -4.851214 23.775668 0.768369 0.000000 0.000000 0.000000 11.890563 -39.683280 58.329460 -25.251479 53.552713 25.231699 0.000000 0.000000 0.000000 
-0.276990 75.161682 -1.180809 0.000000 0.000000 0.000000 11.364161 -52.400860 11.505081 -65.430740 25.792659 44.777149 41.191512 -18.824000 3.219526 8.542069 1.096139 -13.953965 -0.550955 -5.652993 0.457795 0.000000 0.000000 0.000000 11.364161 -52.400860 11.505081 -31.111160 0.570184 -28.786498 49.564115 6.767928 -4.957097 -25.579685 -3.309371 25.581949 0.528351 2.970104 1.471352 0.000000 0.000000 0.000000 11.364161 -52.400860 11.505081 10.870159 2.722854 -2.658455 5.287553 5.515834 -4.597275 0.000000 0.000000 0.000000 0.000000 0.000000 0.000000 -6.569714 6.308094 -3.437967 1.078283 11.188302 -0.459418 -1.508091 24.996797 -5.277521 0.000000 0.000000 0.000000 -6.569714 6.308094 -3.437967 -1.778190 -15.995512 -2.308537 0.000000 0.000000 0.000000 -6.990177 6.173962 -43.710933 -25.996620 -37.298495 -23.847636 0.000000 0.000000 0.000000 -6.569714 6.308094 -3.437967 -4.645110 23.425691 0.308008 0.000000 0.000000 0.000000 13.145890 -41.827532 57.974796 -27.628435 56.724711 27.655018 0.000000 0.000000 0.000000 
-0.365160 75.362991 -1.369877 0.000000 0.000000 0.000000 11.441089 -53.212593 11.682906 -64.851212 26.116635 45.007228 40.732991 -19.480584 3.227106 8.565737 2.267030 -14.388366 -0.415428 -5.477630 0.405860 0.000000 0.000000 0.000000 11.441089 -53.212593 11.682906 -31.601144 0.668097 -28.454310 49.482511 7.044826 -4.982008 -25.248988 -2.777092 25.178476 0.528354 2.970070 1.471348 0.000000 0.000000 0.000000 11.441089 -53.212593 11.682906 10.877967 2.656510 -2.671674 5.371037 5.355686 -4.571354 0.000000 0.000000 0.000000 0.000000 0.000000 0.000000 -6.482941 6.146440 -3.429147 0.189758 11.833650 -0.755542 -0.367792 25.516730 -5.789390 0.000000 0.000000 0.000000 -6.482941 6.146440 -3.429147 -1.756443 -15.966119 -2.165177 0.000000 0.000000 0.000000 -6.645652 6.427173 -42.907043 -26.587239 -38.828819 -25.272031 0.000000 0.000000 0.000000 -6.482941 6.146440 -3.429147 -4.319646 23.154949 -0.587315 0.000000 0.000000 0.000000 13.881954 -43.939795 57.597189 -28.818136 58.482088 28.215540 0.000000 0.000000 0.000000 
-0.457337 75.542648 -1.554657 0.000000 0.000000 0.000000 11.731889 -54.323691 12.134780 -64.059552 26.445340 45.486458 40.199334 -19.161421 3.239357 8.433622 2.639051 -15.072537 -0.429508 -5.417138 0.445632 0.000000 0.000000 0.000000 11.731889 -54.323691 12.134780 -32.392589 0.926410 -28.118591 49.474024 7.454038 -5.009315 -24.836036 -2.096559 24.712620 0.528348 2.970061 1.471344 0.000000 0.000000 0.000000 11.731889 -54.323691 12.134780 10.851695 2.585538 -2.718038 5.501347 5.217128 -4.646266 0.000000 0.000000 0.000000 0.000000 0.000000 0.000000 -6.348712 6.027215 -3.508406 -0.681780 12.562951 -1.054644 0.819678 26.088541 -6.243312 0.000000 0.000000 0.000000 -6.348712 6.027215 -3.508406 -1.744022 -15.645154 -2.158804 0.000000 0.000000 0.000000 -6.689813 6.589835 -41.789720 -27.069011 -39.981229 -26.087831 0.000000 0.000000 0.000000 -6.348712 6.027215 -3.508406 -4.018471 22.701419 -1.358579 0.000000 0.000000 0.000000 13.476983 -45.529457 56.379161 -29.535879 59.535911 28.129776 0.000000 0.000000 0.000000 
-0.542973 75.694168 -1.710186 0.000000 0.000000 0.000000 12.510840 -56.065755 12.949917 -63.198750 26.724824 46.463759 39.750352 -18.717985 3.104968 8.080308 3.278202 -15.959188 -0.590757 -5.418205 0.566564 0.000000 0.000000 0.000000 12.510840 -56.065755 12.949917 -33.758295 1.336695 -27.509210 49.474434 8.116829 -5.044718 -24.178156 -1.087593 24.104159 0.528324 2.970049 1.471353 0.000000 0.000000 0.000000 12.510840 -56.065755 12.949917 10.763327 2.521973 -2.782425 5.502420 5.166518 -4.669874 0.000000 0.000000 0.000000 0.000000 0.000000 0.000000 -6.355147 5.994710 -3.523952 -1.515798 13.655333 -0.973559 2.346410 27.165450 -7.543186 0.000000 0.000000 0.000000 -6.355147 5.994710 -3.523952 -1.684229 -14.773580 -2.002662 0.000000 0.000000 0.000000 -6.719991 6.179387 -40.699837 -27.193268 -40.177280 -26.437043 0.000000 0.000000 0.000000 -6.355147 5.994710 -3.523952 -3.755552 22.223129 -2.209507 0.000000 0.000000 0.000000 11.179591 -46.583342 53.515420 -28.679848 59.639859 26.138823 0.000000 0.000000 0.000000 
-0.625748 75.816742 -1.847580 0.000000 0.000000 0.000000 13.924399 -58.401205 14.309479 -61.953026 26.853708 47.588971 39.367144 -17.932532 2.967025 7.489030 4.286888 -17.269174 -0.580032 -5.418127 0.559300 0.000000 0.000000 0.000000 13.924399 -58.401205 14.309479 -35.699083 1.883379 -26.607985 49.482176 9.014400 -5.089529 -23.257499 0.226925 23.361655 0.528347 2.970051 1.471378 0.000000 0.000000 0.000000 13.924399 -58.401205 14.309479 10.605820 2.378024 -2.865428 5.311432 4.990787 -4.676578 0.000000 0.000000 0.000000 0.000000 0.000000 0.000000 -6.555928 5.841099 -3.554079 -2.086456 15.400041 -1.455790 3.501476 28.633372 -8.562537 0.000000 0.000000 0.000000 -6.555928 5.841099 -3.554079 -1.585903 -14.091356 -1.456200 0.000000 0.000000 0.000000 -6.151797 6.712782 -39.744283 -27.242081 -40.172345 -26.723940 0.000000 0.000000 0.000000 -6.555928 5.841099 -3.554079 -3.521503 21.762239 -3.042213 0.000000 0.000000 0.000000 8.343990 -45.967272 50.166964 -27.201582 59.287353 23.482923 0.000000 0.000000 0.000000 
-0.741788 75.973709 -2.022491 0.000000 0.000000 0.000000 16.212122 -60.886082 16.752661 -60.463389 27.350652 48.464666 38.708741 -16.978863 2.797565 6.954723 5.474486 -18.777467 -0.548465 -5.417791 0.536272 0.000000 0.000000 0.000000 16.212122 -60.886082 16.752661 -38.062564 2.649946 -25.724330 49.520763 9.968198 -5.144494 -22.201972 1.625753 22.579719 0.528357 2.970077 1.471357 0.000000 0.000000 0.000000 16.212122 -60.886082 16.752661 10.367004 2.097728 -3.077302 4.836287 4.569104 -4.996021 0.000000 0.000000 0.000000 0.000000 0.000000 0.000000 -7.026015 5.501790 -3.955152 -2.674485 17.461409 -1.810198 5.099617 30.349782 -10.134294 0.000000 0.000000 0.000000 -7.026015 5.501790 -3.955152 -1.478462 -13.174776 -0.831404 0.000000 0.000000 0.000000 -5.457965 7.481096 -38.013305 -27.355060 -40.301582 -27.328495 0.000000 0.000000 0.000000 -7.026015 5.501790 -3.955152 -3.286624 21.294397 -3.902339 0.000000 0.000000 0.000000 5.469360 -44.832426 46.906778 -25.517375 58.830400 20.618413 0.000000 0.000000 0.000000 
